<?xml version="1.0" encoding="utf-8"?>
<!-- Generator: Adobe Illustrator 26.3.1, SVG Export Plug-In . SVG Version: 6.00 Build 0)  -->
<svg version="1.1" id="Layer_1" xmlns="http://www.w3.org/2000/svg" xmlns:xlink="http://www.w3.org/1999/xlink" x="0px" y="0px"
	 viewBox="0 0 1280 1024" style="enable-background:new 0 0 1280 1024;" xml:space="preserve">
<line style="fill:none;stroke:#000000;stroke-width:20;stroke-miterlimit:10;" x1="461.1" y1="135.8" x2="461.1" y2="721.4"/>
<radialGradient id="SVGID_1_" cx="662.1" cy="236.4" r="200" gradientUnits="userSpaceOnUse">
	<stop  offset="0.4944" style="stop-color:#FFFFFF"/>
	<stop  offset="0.5205" style="stop-color:#ECECEC"/>
	<stop  offset="0.6243" style="stop-color:#A5A5A5"/>
	<stop  offset="0.7222" style="stop-color:#6A6A6A"/>
	<stop  offset="0.8115" style="stop-color:#3C3C3C"/>
	<stop  offset="0.8904" style="stop-color:#1B1B1B"/>
	<stop  offset="0.9559" style="stop-color:#070707"/>
	<stop  offset="1" style="stop-color:#000000"/>
</radialGradient>
<path style="fill:url(#SVGID_1_);stroke:#000000;stroke-width:20;stroke-miterlimit:10;" d="M662.1,36.4c-110.5,0-200,89.5-200,200
	s89.5,200,200,200s200-89.5,200-200S772.6,36.4,662.1,36.4z"/>
<path style="fill:#AA0029;stroke:#000000;stroke-miterlimit:10;" d="M224.7,302.3"/>
<radialGradient id="SVGID_00000068648191275651195540000010664312498265625234_" cx="368.25" cy="395.3" r="198.8782" gradientUnits="userSpaceOnUse">
	<stop  offset="0.3855" style="stop-color:#FFFFFF"/>
	<stop  offset="0.3971" style="stop-color:#F5F5F5"/>
	<stop  offset="0.468" style="stop-color:#BCBCBC"/>
	<stop  offset="0.541" style="stop-color:#8A8A8A"/>
	<stop  offset="0.6145" style="stop-color:#606060"/>
	<stop  offset="0.6887" style="stop-color:#3D3D3D"/>
	<stop  offset="0.7636" style="stop-color:#222222"/>
	<stop  offset="0.8396" style="stop-color:#0F0F0F"/>
	<stop  offset="0.9175" style="stop-color:#040404"/>
	<stop  offset="1" style="stop-color:#000000"/>
</radialGradient>
<path style="fill:url(#SVGID_00000068648191275651195540000010664312498265625234_);stroke:#000000;stroke-width:20;stroke-miterlimit:10;" d="
	M368.2,195.3c-109.3,0-197.7,89.5-197.7,200s88.5,200,197.7,200S566,505.8,566,395.3S477.4,195.3,368.2,195.3z"/>
<radialGradient id="SVGID_00000077306126639001678110000013263065480358396594_" cx="561.6" cy="312.3" r="100.5" gradientUnits="userSpaceOnUse">
	<stop  offset="0.4944" style="stop-color:#FFFFFF"/>
	<stop  offset="0.5205" style="stop-color:#ECECEC"/>
	<stop  offset="0.6243" style="stop-color:#A5A5A5"/>
	<stop  offset="0.7222" style="stop-color:#6A6A6A"/>
	<stop  offset="0.8115" style="stop-color:#3C3C3C"/>
	<stop  offset="0.8904" style="stop-color:#1B1B1B"/>
	<stop  offset="0.9559" style="stop-color:#070707"/>
	<stop  offset="1" style="stop-color:#000000"/>
</radialGradient>
<path style="fill:url(#SVGID_00000077306126639001678110000013263065480358396594_);stroke:#000000;stroke-width:20;stroke-miterlimit:10;" d="
	M561.6,211.8c-55.5,0-100.5,45-100.5,100.5c0,0.4,0,0.8,0,1.2c3.5-0.8,7-1.5,10.5-2.2c0.6-0.1,1.4,0.1,2,0
	c-4.2,0.8-8.3,1.7-12.5,2.6c0.9,54.7,45.5,98.9,100.5,98.9c55.5,0,100.5-45,100.5-100.5S617.1,211.8,561.6,211.8z"/>
<radialGradient id="SVGID_00000104665735689252686030000010587551081036928678_" cx="561.6" cy="513.3" r="100.5" gradientUnits="userSpaceOnUse">
	<stop  offset="0.4944" style="stop-color:#FFFFFF"/>
	<stop  offset="0.5205" style="stop-color:#ECECEC"/>
	<stop  offset="0.6243" style="stop-color:#A5A5A5"/>
	<stop  offset="0.7222" style="stop-color:#6A6A6A"/>
	<stop  offset="0.8115" style="stop-color:#3C3C3C"/>
	<stop  offset="0.8904" style="stop-color:#1B1B1B"/>
	<stop  offset="0.9559" style="stop-color:#070707"/>
	<stop  offset="1" style="stop-color:#000000"/>
</radialGradient>
<circle style="fill:url(#SVGID_00000104665735689252686030000010587551081036928678_);stroke:#000000;stroke-width:20;stroke-miterlimit:10;" cx="561.6" cy="513.3" r="100.5"/>
<text transform="matrix(0.5252 0 0 1 0 977.7773)" style="fill:#F60000; font-family:'FelixTitlingMT'; font-size:321.4085px;">develops.com</text>
<line style="fill:none;stroke:#000000;stroke-miterlimit:10;" x1="1059" y1="576" x2="1059" y2="575"/>
<radialGradient id="SVGID_00000183208197483602171100000005769063186525431472_" cx="445.3333" cy="375.3333" r="129.6877" gradientUnits="userSpaceOnUse">
	<stop  offset="0.5782" style="stop-color:#FFFFFF"/>
	<stop  offset="0.6196" style="stop-color:#FAFAFA"/>
	<stop  offset="0.6719" style="stop-color:#EAEAEA"/>
	<stop  offset="0.73" style="stop-color:#D0D0D0"/>
	<stop  offset="0.7925" style="stop-color:#ACACAC"/>
	<stop  offset="0.8584" style="stop-color:#7D7D7D"/>
	<stop  offset="0.9272" style="stop-color:#454545"/>
	<stop  offset="0.9972" style="stop-color:#030303"/>
	<stop  offset="1" style="stop-color:#000000"/>
</radialGradient>
<ellipse style="fill:url(#SVGID_00000183208197483602171100000005769063186525431472_);" cx="445.3" cy="375.3" rx="132" ry="127.3"/>
</svg>
