<?xml version="1.0" encoding="utf-8"?>
<!-- Generator: Adobe Illustrator 26.3.1, SVG Export Plug-In . SVG Version: 6.00 Build 0)  -->
<svg version="1.1" id="Layer_1" xmlns="http://www.w3.org/2000/svg" xmlns:xlink="http://www.w3.org/1999/xlink" x="0px" y="0px"
	 viewBox="0 0 1280 1024" style="enable-background:new 0 0 1280 1024;" xml:space="preserve">
<line style="fill:#AA0029;stroke:#000000;stroke-width:20;stroke-miterlimit:10;" x1="461.1" y1="135.8" x2="461.1" y2="721.4"/>
<path style="fill:#AA0029;stroke:#000000;stroke-width:20;stroke-miterlimit:10;" d="M662.1,36.4c-110.5,0-200,89.5-200,200
	s89.5,200,200,200s200-89.5,200-200S772.6,36.4,662.1,36.4z"/>
<path style="fill:#AA0029;stroke:#000000;stroke-miterlimit:10;" d="M224.7,302.3"/>
<path style="fill:#AA0029;stroke:#000000;stroke-width:20;stroke-miterlimit:10;" d="M297.6,184.5c-109.3,0-197.7,89.5-197.7,200
	s88.5,200,197.7,200s197.8-89.5,197.8-200S406.8,184.5,297.6,184.5z"/>
<path style="fill:#AA0029;stroke:#000000;stroke-width:20;stroke-miterlimit:10;" d="M561.6,211.8c-55.5,0-100.5,45-100.5,100.5
	c0,0.4,0,0.8,0,1.2c3.5-0.8,7-1.5,10.5-2.2c0.6-0.1,1.4,0.1,2,0c-4.2,0.8-8.3,1.7-12.5,2.6c0.9,54.7,45.5,98.9,100.5,98.9
	c55.5,0,100.5-45,100.5-100.5S617.1,211.8,561.6,211.8z"/>
<circle style="fill:#AA0029;stroke:#000000;stroke-width:20;stroke-miterlimit:10;" cx="561.6" cy="513.3" r="100.5"/>
<rect x="439.6" y="265.3" style="fill:#AA0029;" width="111.4" height="99"/>
<rect x="448.6" y="353.3" style="fill:#AA0029;" width="102.4" height="144"/>
<rect x="521.7" y="232.3" style="fill:#AA0029;" width="29.3" height="42.2"/>
<text transform="matrix(0.5252 0 0 1 0 977.7778)" style="fill:#F60000; font-family:'FelixTitlingMT'; font-size:321.4085px;">develops.com</text>
</svg>
